# Blender 4.3.2
# www.blender.org
o Cube
v -0.078973 1.012028 0.459770
v -0.067054 -0.427114 0.479339
v 0.011714 1.012897 0.468474
v 0.023633 -0.426244 0.488043
v 0.102358 1.013524 0.459318
v 0.114277 -0.425618 0.478887
v 0.189477 1.013883 0.432656
v 0.201396 -0.425259 0.452225
v 0.269721 1.013961 0.389512
v 0.281641 -0.425181 0.409081
v 0.340008 1.013754 0.331543
v 0.351928 -0.425387 0.351112
v 0.397637 1.013272 0.260979
v 0.409556 -0.425869 0.280548
v 0.440392 1.012532 0.180529
v 0.452311 -0.426609 0.200098
v 0.466630 1.011564 0.093287
v 0.478549 -0.427578 0.112856
v 0.475344 1.010402 0.002604
v 0.487263 -0.428739 0.022173
v 0.466198 1.009094 -0.088034
v 0.478118 -0.430048 -0.068465
v 0.439544 1.007689 -0.175145
v 0.451464 -0.431453 -0.155576
v 0.396407 1.006241 -0.255380
v 0.408326 -0.432901 -0.235811
v 0.338443 1.004805 -0.325656
v 0.350362 -0.434337 -0.306087
v 0.267880 1.003437 -0.383273
v 0.279800 -0.435704 -0.363704
v 0.187431 1.002189 -0.426017
v 0.199350 -0.436952 -0.406447
v 0.100187 1.001111 -0.452244
v 0.112106 -0.438031 -0.432675
v 0.009500 1.000241 -0.460947
v 0.021419 -0.438900 -0.441378
v -0.081145 0.999615 -0.451792
v -0.069226 -0.439527 -0.432222
v -0.168264 0.999256 -0.425129
v -0.156344 -0.439886 -0.405560
v -0.248508 0.999178 -0.381985
v -0.236589 -0.439964 -0.362416
v -0.318795 0.999384 -0.324017
v -0.306876 -0.439758 -0.304448
v -0.376424 0.999866 -0.253452
v -0.364504 -0.439275 -0.233883
v -0.419178 1.000606 -0.173003
v -0.407259 -0.438535 -0.153433
v -0.445417 1.001575 -0.085760
v -0.433498 -0.437567 -0.066191
v -0.454131 1.002736 0.004923
v -0.442212 -0.436406 0.024492
v -0.444985 1.004044 0.095561
v -0.433066 -0.435098 0.115130
v -0.418331 1.005450 0.182671
v -0.406412 -0.433693 0.202240
v -0.375194 1.006898 0.262906
v -0.363274 -0.432244 0.282475
v -0.317230 1.008334 0.333183
v -0.305310 -0.430808 0.352752
v -0.246667 1.009701 0.390800
v -0.234748 -0.429440 0.410369
v -0.166218 1.010949 0.433543
v -0.154299 -0.428193 0.453113
v -0.283652 0.999281 -0.353001
v -0.271733 -0.439861 -0.333432
vn -0.0956 0.0127 0.9953
vn 0.1004 0.0144 0.9948
vn 0.2926 0.0154 0.9561
vn 0.4735 0.0159 0.8807
vn 0.6362 0.0158 0.7714
vn 0.7745 0.0150 0.6324
vn 0.8830 0.0137 0.4692
vn 0.9576 0.0118 0.2879
vn 0.9954 0.0095 0.0955
vn 0.9949 0.0069 -0.1005
vn 0.9562 0.0039 -0.2926
vn 0.8808 0.0009 -0.4736
vn 0.7715 -0.0023 -0.6363
vn 0.6325 -0.0053 -0.7745
vn 0.4693 -0.0081 -0.8830
vn 0.2880 -0.0106 -0.9576
vn 0.0956 -0.0127 -0.9953
vn -0.1004 -0.0144 -0.9948
vn -0.2926 -0.0154 -0.9561
vn -0.4735 -0.0159 -0.8807
vn -0.6362 -0.0158 -0.7714
vn -0.7745 -0.0150 -0.6324
vn -0.8830 -0.0137 -0.4692
vn -0.9576 -0.0118 -0.2879
vn -0.9954 -0.0095 -0.0955
vn -0.9949 -0.0069 0.1005
vn -0.9562 -0.0039 0.2926
vn -0.8808 -0.0009 0.4736
vn -0.7715 0.0023 0.6363
vn -0.6325 0.0053 0.7745
vn 0.0083 -0.9999 0.0136
vn -0.4693 0.0081 0.8830
vn -0.2880 0.0106 0.9576
vn -0.0083 0.9999 -0.0136
vn 0.0082 -0.9999 0.0136
vt 1.000000 0.500000
vt 0.968750 1.000000
vt 0.968750 0.500000
vt 0.937500 1.000000
vt 0.937500 0.500000
vt 0.906250 0.500000
vt 0.875000 1.000000
vt 0.875000 0.500000
vt 0.843750 0.500000
vt 0.843750 1.000000
vt 0.812500 0.500000
vt 0.781250 1.000000
vt 0.781250 0.500000
vt 0.750000 0.500000
vt 0.750000 1.000000
vt 0.718750 0.500000
vt 0.718750 1.000000
vt 0.687500 0.500000
vt 0.656250 1.000000
vt 0.656250 0.500000
vt 0.625000 1.000000
vt 0.625000 0.500000
vt 0.593750 0.500000
vt 0.562500 1.000000
vt 0.562500 0.500000
vt 0.531250 0.500000
vt 0.500000 1.000000
vt 0.500000 0.500000
vt 0.468750 0.500000
vt 0.468750 1.000000
vt 0.437500 0.500000
vt 0.437500 1.000000
vt 0.406250 0.500000
vt 0.406250 1.000000
vt 0.375000 0.500000
vt 0.359375 1.000000
vt 0.343750 0.500000
vt 0.359375 0.500000
vt 0.343750 1.000000
vt 0.312500 0.500000
vt 0.312500 1.000000
vt 0.281250 0.500000
vt 0.281250 1.000000
vt 0.250000 0.500000
vt 0.250000 1.000000
vt 0.218750 0.500000
vt 0.218750 1.000000
vt 0.187500 0.500000
vt 0.156250 1.000000
vt 0.156250 0.500000
vt 0.125000 0.500000
vt 0.093750 1.000000
vt 0.093750 0.500000
vt 0.062500 0.500000
vt 0.250000 0.490000
vt 0.203178 0.014612
vt 0.485388 0.203178
vt 0.031250 1.000000
vt 0.031250 0.500000
vt 0.000000 1.000000
vt 0.000000 0.500000
vt 0.796822 0.485388
vt 0.703178 0.014612
vt 0.510000 0.250000
vt 0.375000 1.000000
vt 1.000000 1.000000
vt 0.906250 1.000000
vt 0.812500 1.000000
vt 0.687500 1.000000
vt 0.593750 1.000000
vt 0.531250 1.000000
vt 0.187500 1.000000
vt 0.125000 1.000000
vt 0.062500 1.000000
vt 0.341844 0.471731
vt 0.296822 0.485388
vt 0.203178 0.485388
vt 0.158156 0.471731
vt 0.116663 0.449553
vt 0.080294 0.419706
vt 0.050447 0.383337
vt 0.028269 0.341844
vt 0.014612 0.296822
vt 0.010000 0.250000
vt 0.014612 0.203178
vt 0.028269 0.158156
vt 0.050447 0.116663
vt 0.065371 0.098479
vt 0.080294 0.080294
vt 0.116663 0.050447
vt 0.158156 0.028269
vt 0.250000 0.010000
vt 0.296822 0.014612
vt 0.341844 0.028269
vt 0.383337 0.050447
vt 0.419706 0.080294
vt 0.449553 0.116663
vt 0.471731 0.158156
vt 0.490000 0.250000
vt 0.485388 0.296822
vt 0.471731 0.341844
vt 0.449553 0.383337
vt 0.419706 0.419706
vt 0.383337 0.449553
vt 0.703178 0.485388
vt 0.750000 0.490000
vt 0.841844 0.471731
vt 0.883337 0.449553
vt 0.919706 0.419706
vt 0.949553 0.383337
vt 0.971731 0.341844
vt 0.985388 0.296822
vt 0.990000 0.250000
vt 0.985388 0.203178
vt 0.971731 0.158156
vt 0.949553 0.116663
vt 0.919706 0.080294
vt 0.883337 0.050447
vt 0.841844 0.028269
vt 0.796822 0.014612
vt 0.750000 0.010000
vt 0.658156 0.028269
vt 0.616663 0.050447
vt 0.580294 0.080294
vt 0.565371 0.098479
vt 0.550447 0.116663
vt 0.528269 0.158156
vt 0.514612 0.203178
vt 0.514612 0.296822
vt 0.528269 0.341844
vt 0.550447 0.383337
vt 0.580294 0.419706
vt 0.616663 0.449553
vt 0.658156 0.471731
s 0
f 1/1/1 4/2/1 3/3/1
f 3/3/2 6/4/2 5/5/2
f 6/4/3 7/6/3 5/5/3
f 7/6/4 10/7/4 9/8/4
f 10/7/5 11/9/5 9/8/5
f 12/10/6 13/11/6 11/9/6
f 13/11/7 16/12/7 15/13/7
f 16/12/8 17/14/8 15/13/8
f 18/15/9 19/16/9 17/14/9
f 20/17/10 21/18/10 19/16/10
f 21/18/11 24/19/11 23/20/11
f 23/20/12 26/21/12 25/22/12
f 26/21/13 27/23/13 25/22/13
f 27/23/14 30/24/14 29/25/14
f 30/24/15 31/26/15 29/25/15
f 31/26/16 34/27/16 33/28/16
f 34/27/17 35/29/17 33/28/17
f 36/30/18 37/31/18 35/29/18
f 38/32/19 39/33/19 37/31/19
f 40/34/20 41/35/20 39/33/20
f 66/36/21 43/37/21 65/38/21
f 44/39/22 45/40/22 43/37/22
f 46/41/23 47/42/23 45/40/23
f 48/43/24 49/44/24 47/42/24
f 50/45/25 51/46/25 49/44/25
f 52/47/26 53/48/26 51/46/26
f 53/48/27 56/49/27 55/50/27
f 56/49/28 57/51/28 55/50/28
f 57/51/29 60/52/29 59/53/29
f 60/52/30 61/54/30 59/53/30
f 2/55/31 36/56/31 20/57/31
f 61/54/32 64/58/32 63/59/32
f 63/59/33 2/60/33 1/61/33
f 3/62/34 35/63/34 49/64/34
f 42/65/21 65/38/21 41/35/21
f 1/1/1 2/66/1 4/2/1
f 3/3/2 4/2/2 6/4/2
f 6/4/3 8/67/3 7/6/3
f 7/6/4 8/67/4 10/7/4
f 10/7/5 12/10/5 11/9/5
f 12/10/6 14/68/6 13/11/6
f 13/11/7 14/68/7 16/12/7
f 16/12/8 18/15/8 17/14/8
f 18/15/9 20/17/9 19/16/9
f 20/17/10 22/69/10 21/18/10
f 21/18/11 22/69/11 24/19/11
f 23/20/12 24/19/12 26/21/12
f 26/21/13 28/70/13 27/23/13
f 27/23/14 28/70/14 30/24/14
f 30/24/15 32/71/15 31/26/15
f 31/26/16 32/71/16 34/27/16
f 34/27/17 36/30/17 35/29/17
f 36/30/18 38/32/18 37/31/18
f 38/32/19 40/34/19 39/33/19
f 40/34/20 42/65/20 41/35/20
f 66/36/21 44/39/21 43/37/21
f 44/39/22 46/41/22 45/40/22
f 46/41/23 48/43/23 47/42/23
f 48/43/24 50/45/24 49/44/24
f 50/45/25 52/47/25 51/46/25
f 52/47/26 54/72/26 53/48/26
f 53/48/27 54/72/27 56/49/27
f 56/49/28 58/73/28 57/51/28
f 57/51/29 58/73/29 60/52/29
f 60/52/30 62/74/30 61/54/30
f 6/75/31 4/76/31 2/55/31
f 2/55/31 64/77/31 62/78/31
f 62/78/31 60/79/31 58/80/31
f 58/80/31 56/81/31 54/82/31
f 54/82/31 52/83/31 50/84/31
f 50/84/31 48/85/31 46/86/31
f 46/86/31 44/87/31 66/88/31
f 66/88/31 42/89/31 40/90/31
f 40/90/31 38/91/31 36/56/31
f 36/56/31 34/92/31 32/93/31
f 32/93/31 30/94/31 28/95/31
f 28/95/31 26/96/31 24/97/31
f 24/97/35 22/98/35 20/57/35
f 20/57/31 18/99/31 16/100/31
f 16/100/31 14/101/31 12/102/31
f 12/102/31 10/103/31 8/104/31
f 8/104/31 6/75/31 2/55/31
f 2/55/31 62/78/31 58/80/31
f 58/80/31 54/82/31 50/84/31
f 50/84/31 46/86/31 66/88/31
f 66/88/31 40/90/31 36/56/31
f 36/56/31 32/93/31 28/95/31
f 28/95/31 24/97/31 20/57/31
f 20/57/31 16/100/31 12/102/31
f 12/102/31 8/104/31 2/55/31
f 2/55/31 58/80/31 50/84/31
f 50/84/31 66/88/31 36/56/31
f 36/56/31 28/95/31 20/57/31
f 20/57/31 12/102/31 2/55/31
f 2/55/31 50/84/31 36/56/31
f 61/54/32 62/74/32 64/58/32
f 63/59/33 64/58/33 2/60/33
f 63/105/34 1/106/34 3/62/34
f 3/62/34 5/107/34 7/108/34
f 7/108/34 9/109/34 11/110/34
f 11/110/34 13/111/34 15/112/34
f 15/112/34 17/113/34 19/114/34
f 19/114/34 21/115/34 23/116/34
f 23/116/34 25/117/34 27/118/34
f 27/118/34 29/119/34 31/120/34
f 31/120/34 33/121/34 35/63/34
f 35/63/34 37/122/34 39/123/34
f 39/123/34 41/124/34 65/125/34
f 65/125/34 43/126/34 45/127/34
f 45/127/34 47/128/34 49/64/34
f 49/64/34 51/129/34 53/130/34
f 53/130/34 55/131/34 57/132/34
f 57/132/34 59/133/34 61/134/34
f 61/134/34 63/105/34 3/62/34
f 3/62/34 7/108/34 11/110/34
f 11/110/34 15/112/34 19/114/34
f 19/114/34 23/116/34 27/118/34
f 27/118/34 31/120/34 35/63/34
f 35/63/34 39/123/34 65/125/34
f 65/125/34 45/127/34 49/64/34
f 49/64/34 53/130/34 57/132/34
f 57/132/34 61/134/34 3/62/34
f 3/62/34 11/110/34 19/114/34
f 19/114/34 27/118/34 35/63/34
f 35/63/34 65/125/34 49/64/34
f 49/64/34 57/132/34 3/62/34
f 3/62/34 19/114/34 35/63/34
f 42/65/21 66/36/21 65/38/21
