# Blender 4.3.2
# www.blender.org
o Cube
v -1.184553 15.180403 6.896544
v -1.005764 -6.406722 7.190079
v 0.175753 15.193445 7.027091
v 0.354541 -6.393682 7.320627
v 1.535420 15.202837 6.889758
v 1.714209 -6.384287 7.183293
v 2.842198 15.208221 6.489827
v 3.020988 -6.378901 6.783362
v 4.045869 15.209393 5.842661
v 4.224658 -6.377734 6.136197
v 5.100174 15.206297 4.973136
v 5.278963 -6.380822 5.266673
v 5.964598 15.199064 3.914665
v 6.143388 -6.388057 4.208200
v 6.605924 15.187969 2.707924
v 6.784710 -6.399154 3.001461
v 6.999503 15.173439 1.399287
v 7.178289 -6.413692 1.692824
v 7.130211 15.156021 0.039047
v 7.308998 -6.431103 0.332583
v 6.993021 15.136396 -1.320527
v 7.171812 -6.450731 -1.026991
v 6.593214 15.115318 -2.627184
v 6.772001 -6.471805 -2.333647
v 5.946149 15.093597 -3.830711
v 6.124936 -6.493526 -3.537174
v 5.076689 15.072060 -4.884858
v 5.255478 -6.515068 -4.591321
v 4.018253 15.051538 -5.749113
v 4.197042 -6.535581 -5.455575
v 2.811514 15.032825 -6.390265
v 2.990303 -6.554297 -6.096725
v 1.502846 15.016645 -6.783669
v 1.681634 -6.570482 -6.490134
v 0.142540 15.003601 -6.914217
v 0.321328 -6.583523 -6.620681
v -1.217127 14.994209 -6.776887
v -1.038340 -6.592916 -6.483348
v -2.523907 14.988821 -6.376953
v -2.345118 -6.598303 -6.083417
v -3.727575 14.987652 -5.729789
v -3.548788 -6.599475 -5.436251
v -4.781883 14.990742 -4.860264
v -4.603094 -6.596380 -4.566726
v -5.646307 14.997976 -3.801792
v -5.467518 -6.589145 -3.508255
v -6.287630 15.009075 -2.595051
v -6.108843 -6.578047 -2.301515
v -6.681208 15.023607 -1.286415
v -6.502420 -6.563519 -0.992878
v -6.811916 15.041021 0.073827
v -6.633129 -6.546103 0.367363
v -6.674730 15.060646 1.433399
v -6.495939 -6.526482 1.726936
v -6.274921 15.081728 2.740056
v -6.096134 -6.505404 3.033593
v -5.627855 15.103449 3.943584
v -5.449068 -6.483677 4.237119
v -4.758398 15.124989 4.997730
v -4.579609 -6.462142 5.291267
v -3.699961 15.145500 5.861984
v -3.521173 -6.441621 6.155522
v -2.493221 15.164215 6.503135
v -2.314434 -6.422911 6.796675
v -4.254728 14.989197 -5.295026
v -4.075941 -6.597927 -5.001489
vn -0.0956 0.0127 0.9953
vn 0.1004 0.0144 0.9948
vn 0.2926 0.0154 0.9561
vn 0.4735 0.0159 0.8807
vn 0.6362 0.0158 0.7714
vn 0.7745 0.0150 0.6324
vn 0.8830 0.0137 0.4692
vn 0.9576 0.0118 0.2879
vn 0.9954 0.0095 0.0955
vn 0.9949 0.0069 -0.1005
vn 0.9562 0.0039 -0.2926
vn 0.8808 0.0009 -0.4736
vn 0.7715 -0.0023 -0.6363
vn 0.6325 -0.0053 -0.7745
vn 0.4693 -0.0081 -0.8830
vn 0.2880 -0.0106 -0.9576
vn 0.0956 -0.0127 -0.9953
vn -0.1004 -0.0144 -0.9948
vn -0.2926 -0.0154 -0.9561
vn -0.4735 -0.0159 -0.8807
vn -0.6362 -0.0158 -0.7714
vn -0.7745 -0.0150 -0.6324
vn -0.8830 -0.0137 -0.4692
vn -0.9576 -0.0118 -0.2879
vn -0.9954 -0.0095 -0.0955
vn -0.9949 -0.0069 0.1005
vn -0.9562 -0.0039 0.2926
vn -0.8808 -0.0009 0.4736
vn -0.7715 0.0023 0.6363
vn -0.6325 0.0053 0.7745
vn 0.0083 -0.9999 0.0136
vn -0.4693 0.0081 0.8830
vn -0.2880 0.0106 0.9576
vn -0.0083 0.9999 -0.0136
vn 0.0082 -0.9999 0.0136
vt 1.000000 0.500000
vt 0.968750 1.000000
vt 0.968750 0.500000
vt 0.937500 1.000000
vt 0.937500 0.500000
vt 0.906250 0.500000
vt 0.875000 1.000000
vt 0.875000 0.500000
vt 0.843750 0.500000
vt 0.843750 1.000000
vt 0.812500 0.500000
vt 0.781250 1.000000
vt 0.781250 0.500000
vt 0.750000 0.500000
vt 0.750000 1.000000
vt 0.718750 0.500000
vt 0.718750 1.000000
vt 0.687500 0.500000
vt 0.656250 1.000000
vt 0.656250 0.500000
vt 0.625000 1.000000
vt 0.625000 0.500000
vt 0.593750 0.500000
vt 0.562500 1.000000
vt 0.562500 0.500000
vt 0.531250 0.500000
vt 0.500000 1.000000
vt 0.500000 0.500000
vt 0.468750 0.500000
vt 0.468750 1.000000
vt 0.437500 0.500000
vt 0.437500 1.000000
vt 0.406250 0.500000
vt 0.406250 1.000000
vt 0.375000 0.500000
vt 0.359375 1.000000
vt 0.343750 0.500000
vt 0.359375 0.500000
vt 0.343750 1.000000
vt 0.312500 0.500000
vt 0.312500 1.000000
vt 0.281250 0.500000
vt 0.281250 1.000000
vt 0.250000 0.500000
vt 0.250000 1.000000
vt 0.218750 0.500000
vt 0.218750 1.000000
vt 0.187500 0.500000
vt 0.156250 1.000000
vt 0.156250 0.500000
vt 0.125000 0.500000
vt 0.093750 1.000000
vt 0.093750 0.500000
vt 0.062500 0.500000
vt 0.250000 0.490000
vt 0.203178 0.014612
vt 0.485388 0.203178
vt 0.031250 1.000000
vt 0.031250 0.500000
vt 0.000000 1.000000
vt 0.000000 0.500000
vt 0.796822 0.485388
vt 0.703178 0.014612
vt 0.510000 0.250000
vt 0.375000 1.000000
vt 1.000000 1.000000
vt 0.906250 1.000000
vt 0.812500 1.000000
vt 0.687500 1.000000
vt 0.593750 1.000000
vt 0.531250 1.000000
vt 0.187500 1.000000
vt 0.125000 1.000000
vt 0.062500 1.000000
vt 0.341844 0.471731
vt 0.296822 0.485388
vt 0.203178 0.485388
vt 0.158156 0.471731
vt 0.116663 0.449553
vt 0.080294 0.419706
vt 0.050447 0.383337
vt 0.028269 0.341844
vt 0.014612 0.296822
vt 0.010000 0.250000
vt 0.014612 0.203178
vt 0.028269 0.158156
vt 0.050447 0.116663
vt 0.065371 0.098479
vt 0.080294 0.080294
vt 0.116663 0.050447
vt 0.158156 0.028269
vt 0.250000 0.010000
vt 0.296822 0.014612
vt 0.341844 0.028269
vt 0.383337 0.050447
vt 0.419706 0.080294
vt 0.449553 0.116663
vt 0.471731 0.158156
vt 0.490000 0.250000
vt 0.485388 0.296822
vt 0.471731 0.341844
vt 0.449553 0.383337
vt 0.419706 0.419706
vt 0.383337 0.449553
vt 0.703178 0.485388
vt 0.750000 0.490000
vt 0.841844 0.471731
vt 0.883337 0.449553
vt 0.919706 0.419706
vt 0.949553 0.383337
vt 0.971731 0.341844
vt 0.985388 0.296822
vt 0.990000 0.250000
vt 0.985388 0.203178
vt 0.971731 0.158156
vt 0.949553 0.116663
vt 0.919706 0.080294
vt 0.883337 0.050447
vt 0.841844 0.028269
vt 0.796822 0.014612
vt 0.750000 0.010000
vt 0.658156 0.028269
vt 0.616663 0.050447
vt 0.580294 0.080294
vt 0.565371 0.098479
vt 0.550447 0.116663
vt 0.528269 0.158156
vt 0.514612 0.203178
vt 0.514612 0.296822
vt 0.528269 0.341844
vt 0.550447 0.383337
vt 0.580294 0.419706
vt 0.616663 0.449553
vt 0.658156 0.471731
s 0
f 1/1/1 4/2/1 3/3/1
f 3/3/2 6/4/2 5/5/2
f 6/4/3 7/6/3 5/5/3
f 7/6/4 10/7/4 9/8/4
f 10/7/5 11/9/5 9/8/5
f 12/10/6 13/11/6 11/9/6
f 13/11/7 16/12/7 15/13/7
f 16/12/8 17/14/8 15/13/8
f 18/15/9 19/16/9 17/14/9
f 20/17/10 21/18/10 19/16/10
f 21/18/11 24/19/11 23/20/11
f 23/20/12 26/21/12 25/22/12
f 26/21/13 27/23/13 25/22/13
f 27/23/14 30/24/14 29/25/14
f 30/24/15 31/26/15 29/25/15
f 31/26/16 34/27/16 33/28/16
f 34/27/17 35/29/17 33/28/17
f 36/30/18 37/31/18 35/29/18
f 38/32/19 39/33/19 37/31/19
f 40/34/20 41/35/20 39/33/20
f 66/36/21 43/37/21 65/38/21
f 44/39/22 45/40/22 43/37/22
f 46/41/23 47/42/23 45/40/23
f 48/43/24 49/44/24 47/42/24
f 50/45/25 51/46/25 49/44/25
f 52/47/26 53/48/26 51/46/26
f 53/48/27 56/49/27 55/50/27
f 56/49/28 57/51/28 55/50/28
f 57/51/29 60/52/29 59/53/29
f 60/52/30 61/54/30 59/53/30
f 2/55/31 36/56/31 20/57/31
f 61/54/32 64/58/32 63/59/32
f 63/59/33 2/60/33 1/61/33
f 3/62/34 35/63/34 49/64/34
f 42/65/21 65/38/21 41/35/21
f 1/1/1 2/66/1 4/2/1
f 3/3/2 4/2/2 6/4/2
f 6/4/3 8/67/3 7/6/3
f 7/6/4 8/67/4 10/7/4
f 10/7/5 12/10/5 11/9/5
f 12/10/6 14/68/6 13/11/6
f 13/11/7 14/68/7 16/12/7
f 16/12/8 18/15/8 17/14/8
f 18/15/9 20/17/9 19/16/9
f 20/17/10 22/69/10 21/18/10
f 21/18/11 22/69/11 24/19/11
f 23/20/12 24/19/12 26/21/12
f 26/21/13 28/70/13 27/23/13
f 27/23/14 28/70/14 30/24/14
f 30/24/15 32/71/15 31/26/15
f 31/26/16 32/71/16 34/27/16
f 34/27/17 36/30/17 35/29/17
f 36/30/18 38/32/18 37/31/18
f 38/32/19 40/34/19 39/33/19
f 40/34/20 42/65/20 41/35/20
f 66/36/21 44/39/21 43/37/21
f 44/39/22 46/41/22 45/40/22
f 46/41/23 48/43/23 47/42/23
f 48/43/24 50/45/24 49/44/24
f 50/45/25 52/47/25 51/46/25
f 52/47/26 54/72/26 53/48/26
f 53/48/27 54/72/27 56/49/27
f 56/49/28 58/73/28 57/51/28
f 57/51/29 58/73/29 60/52/29
f 60/52/30 62/74/30 61/54/30
f 6/75/31 4/76/31 2/55/31
f 2/55/31 64/77/31 62/78/31
f 62/78/31 60/79/31 58/80/31
f 58/80/31 56/81/31 54/82/31
f 54/82/31 52/83/31 50/84/31
f 50/84/31 48/85/31 46/86/31
f 46/86/31 44/87/31 66/88/31
f 66/88/31 42/89/31 40/90/31
f 40/90/31 38/91/31 36/56/31
f 36/56/31 34/92/31 32/93/31
f 32/93/31 30/94/31 28/95/31
f 28/95/31 26/96/31 24/97/31
f 24/97/35 22/98/35 20/57/35
f 20/57/31 18/99/31 16/100/31
f 16/100/31 14/101/31 12/102/31
f 12/102/31 10/103/31 8/104/31
f 8/104/31 6/75/31 2/55/31
f 2/55/31 62/78/31 58/80/31
f 58/80/31 54/82/31 50/84/31
f 50/84/31 46/86/31 66/88/31
f 66/88/31 40/90/31 36/56/31
f 36/56/31 32/93/31 28/95/31
f 28/95/31 24/97/31 20/57/31
f 20/57/31 16/100/31 12/102/31
f 12/102/31 8/104/31 2/55/31
f 2/55/31 58/80/31 50/84/31
f 50/84/31 66/88/31 36/56/31
f 36/56/31 28/95/31 20/57/31
f 20/57/31 12/102/31 2/55/31
f 2/55/31 50/84/31 36/56/31
f 61/54/32 62/74/32 64/58/32
f 63/59/33 64/58/33 2/60/33
f 63/105/34 1/106/34 3/62/34
f 3/62/34 5/107/34 7/108/34
f 7/108/34 9/109/34 11/110/34
f 11/110/34 13/111/34 15/112/34
f 15/112/34 17/113/34 19/114/34
f 19/114/34 21/115/34 23/116/34
f 23/116/34 25/117/34 27/118/34
f 27/118/34 29/119/34 31/120/34
f 31/120/34 33/121/34 35/63/34
f 35/63/34 37/122/34 39/123/34
f 39/123/34 41/124/34 65/125/34
f 65/125/34 43/126/34 45/127/34
f 45/127/34 47/128/34 49/64/34
f 49/64/34 51/129/34 53/130/34
f 53/130/34 55/131/34 57/132/34
f 57/132/34 59/133/34 61/134/34
f 61/134/34 63/105/34 3/62/34
f 3/62/34 7/108/34 11/110/34
f 11/110/34 15/112/34 19/114/34
f 19/114/34 23/116/34 27/118/34
f 27/118/34 31/120/34 35/63/34
f 35/63/34 39/123/34 65/125/34
f 65/125/34 45/127/34 49/64/34
f 49/64/34 53/130/34 57/132/34
f 57/132/34 61/134/34 3/62/34
f 3/62/34 11/110/34 19/114/34
f 19/114/34 27/118/34 35/63/34
f 35/63/34 65/125/34 49/64/34
f 49/64/34 57/132/34 3/62/34
f 3/62/34 19/114/34 35/63/34
f 42/65/21 66/36/21 65/38/21
