# Blender 4.3.2
# www.blender.org
o Cube1
v -1.820996 10.000000 -10.000000
v 10.000000 -10.000000 -10.000000
v 4.855667 9.553001 -7.441031
v 10.000000 -10.000000 10.000000
v -5.364746 10.000000 1.164367
v -10.000000 -10.000000 -10.000000
v 0.578610 10.000000 2.482287
v -10.000000 -10.000000 10.000000
vn 0.0721 0.9973 -0.0139
vn -0.0000 0.3519 0.9361
vn -0.9742 0.2258 -0.0000
vn -0.0000 -1.0000 -0.0000
vn 0.9671 0.2544 -0.0000
vn -0.0000 -0.0000 -1.0000
vn -0.0000 1.0000 -0.0000
vn 0.8032 0.5000 0.3237
vn -0.1951 0.4338 0.8796
vn 0.3621 0.2140 -0.9073
vn -0.8881 0.3632 -0.2819
vt 0.625000 0.500000
vt 0.875000 0.750000
vt 0.625000 0.750000
vt 0.375000 0.750000
vt 0.625000 1.000000
vt 0.375000 1.000000
vt 0.375000 0.000000
vt 0.625000 0.250000
vt 0.375000 0.250000
vt 0.375000 0.500000
vt 0.125000 0.750000
vt 0.125000 0.500000
vt 0.875000 0.500000
vt 0.625000 0.000000
s 0
f 1/1/1 7/2/1 3/3/1
f 4/4/2 7/5/2 8/6/2
f 8/7/3 5/8/3 6/9/3
f 2/10/4 8/11/4 6/12/4
f 2/10/5 3/3/5 4/4/5
f 6/9/6 1/1/6 2/10/6
f 1/1/7 5/13/7 7/2/7
f 4/4/8 3/3/8 7/5/8
f 8/7/9 7/14/9 5/8/9
f 2/10/4 4/4/4 8/11/4
f 2/10/10 1/1/10 3/3/10
f 6/9/11 5/8/11 1/1/11
