# Blender 4.3.2
# www.blender.org
o Cube
v -0.357098 6.988639 -13.017292
v 10.000000 -10.000000 -10.000000
v 4.855667 9.553001 -7.441031
v 10.000000 7.541851 10.000000
v -5.848470 9.803928 0.969026
v -10.000000 3.591260 -10.000000
v 0.578610 10.000000 2.482287
v -11.146475 -6.412424 14.581866
v 0.690225 8.270821 -8.978413
v -6.703996 10.053416 -4.773384
v 2.772946 8.911911 -8.209722
v -4.068531 7.692461 -7.644589
v -1.392497 10.563535 -9.292196
v -5.255157 9.100105 -1.902179
v -0.138876 13.077489 -3.147466
vn 0.8816 0.4523 0.1349
vn -0.3245 0.7004 0.6357
vn -0.9099 0.3974 0.1193
vn 0.4751 -0.8226 -0.3126
vn -0.1998 0.9477 -0.2490
vn -0.7833 -0.6216 -0.0095
vn -0.7413 0.3693 -0.5605
vn 0.7085 0.5907 -0.3862
vn -0.7575 0.6437 -0.1088
vn -0.1454 0.6945 -0.7046
vn -0.4623 0.7451 0.4807
vn 0.0252 0.9721 -0.2331
vn -0.2410 0.9593 -0.1471
vn -0.0026 0.7714 -0.6363
vn -0.4681 0.7489 0.4691
vn 0.2154 0.9753 0.0489
vn -0.1900 0.6669 0.7205
vn -0.4550 -0.6695 0.5872
vn 0.8186 0.4318 -0.3787
vn 0.7115 0.5952 -0.3735
vn -0.0000 -0.9363 -0.3511
vn 0.6433 -0.7156 -0.2723
vn 0.4645 0.6836 -0.5630
vn -0.6290 -0.7751 0.0600
vn -0.7315 -0.5235 -0.4368
vt 0.875000 0.750000
vt 0.625000 0.687500
vt 0.687500 0.562500
vt 0.375000 0.750000
vt 0.625000 1.000000
vt 0.375000 1.000000
vt 0.375000 0.000000
vt 0.625000 0.250000
vt 0.375000 0.250000
vt 0.125000 0.500000
vt 0.125000 0.750000
vt 0.625000 0.500000
vt 0.625000 0.625000
vt 0.625000 0.750000
vt 0.625000 0.312500
vt 0.625000 0.437500
vt 0.375000 0.500000
vt 0.687500 0.500000
vt 0.625000 0.562500
vt 0.750000 0.500000
vt 0.812500 0.500000
vt 0.875000 0.500000
vt 0.625000 0.000000
vt 0.625000 0.375000
s 0
f 7/1/1 11/2/1 15/3/1
f 4/4/2 7/5/2 8/6/2
f 8/7/3 5/8/3 6/9/3
f 6/10/4 4/4/4 8/11/4
f 1/12/5 9/13/5 3/14/5
f 14/15/6 12/16/6 2/17/6
f 1/12/7 12/18/7 13/19/7
f 13/19/8 15/3/8 9/13/8
f 13/19/9 12/18/9 15/3/9
f 12/18/10 10/20/10 15/3/10
f 15/3/11 10/20/11 14/21/11
f 14/21/12 5/22/12 7/1/12
f 7/1/13 3/14/13 11/2/13
f 11/2/14 9/13/14 15/3/14
f 15/3/15 14/21/15 7/1/15
f 4/4/16 3/14/16 7/5/16
f 8/7/17 7/23/17 5/8/17
f 6/10/18 2/17/18 4/4/18
f 4/4/19 2/17/19 1/12/19
f 1/12/20 13/19/20 9/13/20
f 9/13/21 11/2/21 3/14/21
f 3/14/22 4/4/22 1/12/22
f 2/17/23 6/9/23 5/8/23
f 14/15/24 10/24/24 12/16/24
f 2/17/6 5/8/6 14/15/6
f 12/16/25 1/12/25 2/17/25
